<svg width="346" height="347" viewBox="0 0 346 347" fill="none" xmlns="http://www.w3.org/2000/svg">
<path d="M120.532 11.9661C85.9616 23.9591 56.1478 46.722 35.4701 76.9115C14.7925 107.101 4.34097 143.126 5.65066 179.694C6.96035 216.263 19.9623 251.447 42.7466 280.08C65.5309 308.713 96.8967 329.285 132.237 338.774C160.888 346.167 190.906 346.492 219.71 339.72C245.804 333.859 269.928 321.322 289.721 303.336C310.321 284.045 325.273 259.504 332.971 232.352C341.338 202.825 342.826 171.773 337.323 141.581H176.433V208.321H269.61C267.747 218.966 263.757 229.125 257.877 238.192C251.997 247.258 244.348 255.045 235.388 261.086C224.01 268.612 211.184 273.677 197.734 275.953C184.243 278.462 170.406 278.462 156.916 275.953C143.244 273.126 130.309 267.483 118.937 259.383C100.668 246.451 86.9508 228.079 79.7422 206.889C72.4117 185.301 72.4117 161.898 79.7422 140.311C84.8734 125.179 93.356 111.402 104.557 100.007C117.375 86.7277 133.603 77.2357 151.46 72.5723C169.318 67.9088 188.115 68.2542 205.789 73.5704C219.596 77.8086 232.221 85.2137 242.66 95.1954C253.166 84.7433 263.654 74.2642 274.124 63.758C279.53 58.1085 285.423 52.7293 290.748 46.9446C274.815 32.1173 256.112 20.5798 235.712 12.9933C198.564 -0.495531 157.916 -0.858032 120.532 11.9661Z" fill="white"/>
<path d="M120.532 11.9656C157.913 -0.867283 198.56 -0.514325 235.712 12.9658C256.116 20.6038 274.81 32.1968 290.721 47.0792C285.315 52.8639 279.611 58.2701 274.097 63.8926C263.609 74.3627 253.13 84.7968 242.66 95.1948C232.221 85.2132 219.596 77.8081 205.789 73.5698C188.121 68.235 169.324 67.8697 151.462 72.5141C133.6 77.1584 117.362 86.633 104.53 99.8983C93.329 111.293 84.8464 125.07 79.7152 140.202L23.6794 96.8167C43.7368 57.0419 78.4649 26.6172 120.532 11.9656Z" fill="#E33629"/>
<path d="M8.81219 139.797C11.824 124.87 16.8243 110.415 23.6794 96.8174L79.7151 140.311C72.3847 161.898 72.3847 185.301 79.7151 206.889C61.0456 221.305 42.367 235.794 23.6794 250.355C6.5186 216.196 1.28487 177.276 8.81219 139.797Z" fill="#F8BD00"/>
<path d="M176.433 141.554H337.323C342.826 171.746 341.338 202.798 332.971 232.325C325.273 259.477 310.321 284.018 289.721 303.309C271.637 289.198 253.472 275.196 235.388 261.086C244.354 255.038 252.006 247.243 257.886 238.167C263.767 229.091 267.754 218.921 269.61 208.267H176.433C176.406 186.047 176.433 163.8 176.433 141.554Z" fill="#587DBD"/>
<path d="M23.6523 250.355C42.3399 235.938 61.0185 221.45 79.6881 206.889C86.9111 228.087 100.648 246.46 118.938 259.383C130.345 267.446 143.307 273.043 156.997 275.818C170.488 278.327 184.325 278.327 197.815 275.818C211.265 273.542 224.091 268.477 235.469 260.951C253.553 275.061 271.718 289.064 289.802 303.174C270.012 321.169 245.888 333.716 219.791 339.585C190.987 346.357 160.969 346.032 132.318 338.639C109.658 332.589 88.4915 321.923 70.1461 307.31C50.7285 291.894 34.8691 272.466 23.6523 250.355Z" fill="#319F43"/>
</svg>
