<svg width="90" height="90" viewBox="0 0 90 90" fill="none" xmlns="http://www.w3.org/2000/svg">
<rect x="0.5" y="0.5" width="89" height="89" rx="44.5" stroke="#CBB434"/>
<path d="M50.5 58.1186C49.881 57.79 49.4149 57.6028 49.0175 57.3162C48.2189 56.7431 47.8216 56.9761 47.5235 57.8588C47.321 58.4587 46.9848 59.4177 46.595 59.475C45.4526 59.6508 44.2414 59.5323 43.0836 59.3451C42.8238 59.3031 42.6137 58.5274 42.5029 58.0575C42.266 57.0793 41.9183 56.6896 40.9019 57.3468C39.4538 58.2867 39.4614 58.195 37.6197 56.4489C36.6798 55.5586 36.4658 54.7638 37.3293 53.7437C38.0056 52.9451 37.7917 52.3529 36.7677 52.2612C35.2126 52.1274 35.0292 51.2066 35.0215 49.8922C35.0139 48.3791 35.0635 47.1641 37.039 47.0495C37.784 47.0074 37.8605 46.4228 37.4325 45.7236C37.1039 45.1849 36.6645 44.2258 36.8938 43.924C37.6197 42.9611 38.5864 42.1473 39.5799 41.4481C39.8015 41.2914 40.5657 41.7805 40.9974 42.0861C41.8571 42.686 42.1743 42.3001 42.4685 41.4901C42.6863 40.8864 43.0072 39.9121 43.3969 39.8547C44.5356 39.6828 45.7468 39.7936 46.8931 40.0114C47.1835 40.0649 47.3669 40.9131 47.5121 41.4213C47.7719 42.3192 48.1998 42.7815 49.0328 42.0288C50.5038 40.7068 51.2489 41.9524 52.2003 42.793C53.2052 43.6833 53.6332 44.5239 52.6283 45.6892C51.8603 46.5795 52.3608 47.0342 53.2931 47.1259C54.6495 47.2634 55.1004 48.0047 54.9399 49.2732C54.8979 49.5904 54.9055 49.919 54.9399 50.2361C55.0698 51.3938 54.6495 52.0472 53.4192 52.2039C52.72 52.2917 51.7418 52.5554 52.5671 53.5641C53.6217 54.8517 53.2587 55.7764 52.1124 56.6819C51.5584 57.1252 51.054 57.6257 50.5 58.1186ZM51.9252 55.0351C50.4121 52.5133 50.5955 52.0052 53.1747 50.9468C53.4001 50.8551 53.6255 50.5188 53.6599 50.2705C53.7325 49.7394 53.6828 49.1892 53.6828 48.6925C50.5955 47.4698 50.5497 47.359 51.7342 44.4933C51.1954 43.8896 50.7178 43.3547 50.2402 42.8159C50.1103 42.8809 49.9842 42.9382 49.8696 43.0108C47.9247 44.2564 47.1376 43.924 46.2665 41.7193C46.1213 41.3525 45.2845 41.0927 44.7648 41.0927C44.3904 41.0927 43.7332 41.5703 43.6912 41.8951C43.5345 43.1751 42.6595 43.6909 41.6432 43.7291C41.0051 43.7559 40.344 43.1636 39.8741 42.9344C39.2627 43.4426 38.6781 43.924 38.1126 44.3978C39.5722 46.8508 39.4117 47.2405 36.8938 48.4899C36.5308 48.6695 36.3703 49.5254 36.3779 50.068C36.3818 50.3851 36.8632 50.9277 37.1842 50.9735C38.4221 51.1455 39.0067 51.9555 39.0258 53.0062C39.0373 53.6558 38.4833 54.3206 38.1317 55.0924C38.5941 55.5395 39.1137 56.0438 39.6219 56.5329C42.4876 55.165 42.5678 55.1994 44.0198 58.3402C45.2195 58.4816 46.446 58.7414 46.5072 56.8615C46.5186 56.5444 47.0765 55.9904 47.3974 55.9789C48.4023 55.9483 49.4111 56.1241 50.6567 56.2425C50.905 56.0056 51.4018 55.5357 51.9252 55.0351Z" fill="#CBB434"/>
<path d="M44.9673 36.0988C43.0416 36.0988 41.112 36.0721 39.1863 36.1103C38.3036 36.1294 37.9216 35.7893 37.9445 34.9067C37.975 33.7146 37.9024 32.5186 37.9827 31.3303C38.1623 28.7589 39.7823 27.0586 42.3462 26.8675C44.0809 26.7414 45.8385 26.7453 47.5732 26.8599C50.1981 27.0318 51.8526 28.7589 52.0169 31.3915C52.0933 32.5798 52.0283 33.7757 52.0474 34.9678C52.0589 35.7702 51.7189 36.1217 50.8859 36.1064C48.9143 36.0759 46.9389 36.0988 44.9673 36.0988ZM50.7751 34.6965C50.7751 34.1463 50.7789 33.6534 50.7751 33.1567C50.7713 32.469 50.8248 31.7736 50.7407 31.0973C50.5344 29.4275 49.1741 28.1857 47.4738 28.1361C45.8232 28.0902 44.1726 28.0902 42.5219 28.1361C40.8254 28.1819 39.4193 29.4275 39.2627 31.0973C39.1519 32.2664 39.2398 33.4586 39.2398 34.6965C39.8282 34.6965 40.3058 34.6965 40.9171 34.6965C40.9171 33.9515 40.8636 33.2713 40.9324 32.5989C41.0012 31.9035 40.5045 30.933 41.6393 30.719C41.7234 30.7037 42.1169 31.8767 42.2124 32.5186C42.3156 33.2217 42.2354 33.9476 42.2354 34.666C44.1649 34.666 45.9225 34.666 47.7566 34.666C47.7566 33.7451 47.684 32.916 47.7833 32.1098C47.8444 31.6016 48.1654 31.1278 48.3679 30.6388C48.6048 31.1546 48.9678 31.6513 49.048 32.19C49.1627 32.9886 49.0786 33.8139 49.0786 34.6965C49.6861 34.6965 50.1637 34.6965 50.7751 34.6965Z" fill="#CBB434"/>
<path d="M27.9949 70.3187C26.0692 70.3187 24.1434 70.2882 22.2177 70.3302C21.3389 70.3493 20.9644 70.0513 21.0026 69.1419C21.0561 67.9536 20.9835 66.7577 21.0256 65.5656C21.1135 63.124 22.9895 61.2365 25.4234 61.1715C27.2116 61.1219 28.9998 61.118 30.788 61.1792C33.0767 61.2556 34.9451 63.1125 35.0598 65.4013C35.1247 66.6812 35.0445 67.9689 35.0903 69.2527C35.1209 70.1353 34.6853 70.3378 33.9097 70.3264C31.9381 70.2996 29.9665 70.3187 27.9949 70.3187ZM30.8377 69.0196C30.8377 67.839 30.788 66.8303 30.8644 65.8292C30.8873 65.5121 31.2465 65.2178 31.4528 64.9122C31.6553 65.2102 32.0145 65.5006 32.0374 65.8139C32.11 66.8494 32.0642 67.8963 32.0642 69.012C32.687 69.012 33.1608 69.012 33.7759 69.012C33.7759 67.9039 33.8027 66.857 33.7683 65.8139C33.7072 63.8423 32.5036 62.505 30.5511 62.398C28.8584 62.3025 27.1581 62.314 25.4655 62.4019C23.9524 62.4821 22.5692 63.6093 22.4278 64.9351C22.2865 66.2762 22.3973 67.6441 22.3973 69.0961C23.0048 69.0655 23.4786 69.0426 24.0288 69.0158C24.0288 67.8772 23.983 66.8723 24.0555 65.8712C24.0785 65.5426 24.3994 65.2331 24.5828 64.916C24.8159 65.2446 25.2171 65.5579 25.2477 65.9018C25.3356 66.9296 25.2782 67.9689 25.2782 69.0158C27.2193 69.0196 28.9425 69.0196 30.8377 69.0196Z" fill="#CBB434"/>
<path d="M61.8594 70.3187C59.9796 70.3187 58.0997 70.2729 56.2198 70.3378C55.169 70.3761 54.8443 69.9672 54.9016 68.97C54.9665 67.8734 54.8939 66.7691 54.9245 65.6687C54.9895 63.1469 56.8541 61.2327 59.3568 61.1677C61.0991 61.1219 62.8414 61.1219 64.5838 61.1715C67.0139 61.2403 68.8861 63.1278 68.974 65.5732C69.016 66.7653 68.9472 67.9574 68.9969 69.1495C69.0389 70.0666 68.6492 70.3493 67.7742 70.334C65.8026 70.292 63.831 70.3187 61.8594 70.3187ZM64.7137 69.0196C64.7137 67.8925 64.6563 66.8838 64.7442 65.8903C64.7748 65.5464 65.1798 65.2408 65.4167 64.916C65.6001 65.237 65.9173 65.5464 65.9364 65.8789C66.0051 66.9105 65.9631 67.9498 65.9631 68.9891C66.6318 68.9891 67.1094 68.9891 67.6672 68.9891C67.6672 67.8887 67.6863 66.8799 67.6634 65.8789C67.6137 63.8347 66.3987 62.4897 64.3812 62.3904C62.7344 62.3102 61.08 62.3178 59.4332 62.3942C57.9774 62.4592 56.7356 63.2272 56.4452 64.6142C56.1472 66.0355 56.3803 67.5639 56.3803 69.1075C56.9228 69.0693 57.3661 69.0426 57.9392 69.0005C57.9392 67.9307 57.8857 66.9296 57.9659 65.9362C57.9965 65.577 58.3519 65.2484 58.5582 64.9045C58.7607 65.2561 59.1084 65.5999 59.139 65.9667C59.2192 66.9525 59.1657 67.9536 59.1657 69.012C61.0609 69.0196 62.7841 69.0196 64.7137 69.0196Z" fill="#CBB434"/>
<path d="M35.8391 32.0986C36.0034 32.2285 36.3626 32.3814 36.3702 32.5533C36.3855 32.8131 36.2288 33.1838 36.0225 33.3404C35.1437 33.9976 34.1655 34.5249 33.3211 35.2241C28.4342 39.2666 26.1684 44.4783 26.4167 50.8134C26.432 51.2451 26.0614 51.6922 25.8665 52.1316C25.6258 51.7647 25.194 51.4018 25.1788 51.0235C24.8463 43.0569 28.0826 36.9321 34.7731 32.6183C35.0023 32.4693 35.2545 32.3546 35.499 32.2285C35.5793 32.1865 35.671 32.1598 35.8391 32.0986Z" fill="#CBB434"/>
<path d="M64.8399 49.3996C64.8399 49.9957 64.9278 50.6108 64.8093 51.1839C64.7367 51.5355 64.3508 51.822 64.1063 52.1392C63.9152 51.7838 63.5331 51.4132 63.5561 51.0731C63.7509 48.4711 63.4376 45.934 62.555 43.4925C61.0916 39.4347 58.5545 36.2099 54.8788 33.9135C54.6075 33.7416 54.2636 33.6308 54.0764 33.3939C53.8624 33.1226 53.7898 32.7405 53.6599 32.4081C54.0305 32.3852 54.5349 32.1903 54.7489 32.3622C56.6708 33.9059 58.7723 35.3082 60.3771 37.1422C63.3994 40.6001 64.7979 44.7916 64.8399 49.3996Z" fill="#CBB434"/>
<path d="M44.9597 25.9464C43.0416 25.9312 41.4521 24.3569 41.4597 22.4694C41.4636 20.5781 43.0492 19.0115 44.9712 19.0001C46.9619 18.9886 48.5934 20.6125 48.5361 22.5497C48.4788 24.4563 46.8969 25.9617 44.9597 25.9464ZM47.2102 22.4465C47.1949 21.2811 46.19 20.2648 45.0323 20.2457C43.8287 20.2227 42.7665 21.2964 42.7856 22.5153C42.8009 23.6692 43.8211 24.7046 44.9635 24.7276C46.1518 24.7505 47.2255 23.6577 47.2102 22.4465Z" fill="#CBB434"/>
<path d="M31.5215 56.7928C31.5024 58.7491 29.932 60.2927 27.9987 60.2583C26.05 60.2201 24.556 58.665 24.5751 56.6934C24.5942 54.7639 26.1914 53.1935 28.098 53.2241C30.0085 53.2508 31.5406 54.8479 31.5215 56.7928ZM30.2989 56.7508C30.3027 55.5777 29.3207 54.5843 28.1248 54.5537C26.86 54.5194 25.8169 55.5128 25.8131 56.7431C25.8093 57.8817 26.8333 58.9401 27.9796 58.9783C29.164 59.0204 30.295 57.9352 30.2989 56.7508Z" fill="#CBB434"/>
<path d="M58.4742 56.6173C58.5201 54.6993 60.1669 53.148 62.0697 53.2244C63.984 53.3008 65.4665 54.917 65.4168 56.8695C65.3671 58.8067 63.7356 60.3427 61.8137 60.2548C59.8574 60.1669 58.4284 58.6118 58.4742 56.6173ZM61.9207 58.9825C63.0669 58.9978 64.1215 57.9929 64.1788 56.839C64.2361 55.6124 63.2236 54.5617 61.9665 54.5502C60.7591 54.5388 59.758 55.4711 59.6969 56.6556C59.6358 57.8209 60.7324 58.9672 61.9207 58.9825Z" fill="#CBB434"/>
<path d="M44.9941 69.9405C42.4303 69.3101 39.9544 68.737 37.5052 68.0683C37.1651 67.9766 36.9473 67.4188 36.676 67.0787C37.1078 67.0329 37.6045 66.8227 37.9637 66.9641C42.6672 68.7599 47.344 68.7599 52.0437 66.9564C52.3991 66.8189 52.8958 67.0405 53.3237 67.094C53.0448 67.4341 52.8194 67.9843 52.4717 68.076C50.0263 68.7408 47.5503 69.3177 44.9941 69.9405Z" fill="#CBB434"/>
<path d="M44.933 44.5775C47.7987 44.5469 50.1447 46.828 50.1638 49.6631C50.1829 52.4523 47.791 54.848 44.9865 54.8442C42.1858 54.8404 39.7977 52.437 39.8244 49.6478C39.8588 46.87 42.1399 44.6042 44.933 44.5775ZM45.0629 53.5107C47.1835 53.4878 48.8762 51.7645 48.8571 49.6439C48.838 47.5577 47.0689 45.7925 44.998 45.7925C42.8735 45.7925 41.093 47.6303 41.1388 49.7777C41.1847 51.8792 42.9232 53.5336 45.0629 53.5107Z" fill="#CBB434"/>
</svg>
