<svg width="130" height="54" viewBox="0 0 130 54" fill="none" xmlns="http://www.w3.org/2000/svg">
<path d="M16.803 0.585938C15.0239 0.585938 13.3657 1.46218 12.3866 2.91985L1.39157 19.2531C-0.51663 21.8818 -0.458301 25.4277 1.54156 27.9909L6.23289 34.0059C7.23698 35.2916 8.78687 36.045 10.4368 36.045H15.7864L8.69104 27.7043C6.5412 25.178 6.36621 21.5584 8.25774 18.8437L20.9735 0.585938H16.803Z" fill="#CBB434"/>
<path d="M7.73694 53.5862C9.51598 53.5862 11.1742 52.7099 12.1533 51.2523L23.1483 34.919C25.0607 32.2903 24.9982 28.7444 22.9983 26.1771L18.3028 20.1621C17.2988 18.8764 15.7489 18.123 14.099 18.123H8.75353L15.8489 26.4637C17.9987 28.9901 18.1737 32.6097 16.2822 35.3244L3.56641 53.5862H7.73694Z" fill="#CBB434"/>
<path d="M14.2446 26.4606C14.2446 27.7709 13.1655 28.8314 11.8322 28.8314C10.499 28.8314 9.41992 27.7709 9.41992 26.4606C9.41992 25.1503 10.499 24.0898 11.8322 24.0898C13.1613 24.0898 14.2446 25.1503 14.2446 26.4606Z" fill="#CBB434"/>
<path d="M31.6992 35.9287L31.7159 37.1653H30.8951C30.4535 37.1653 30.1285 37.0383 29.9118 36.7886C29.6952 36.5347 29.5743 36.1294 29.541 35.5602L29.5452 31.6908C29.5452 31.6908 30.141 31.6826 30.5951 31.6826C31.2242 31.6826 31.6742 32.1249 31.945 33.0093C32.07 33.4515 33.1741 35.3759 36.878 35.3759C38.2279 35.3759 39.3278 35.0607 40.1694 34.4342C41.011 33.8077 41.436 33.0052 41.436 32.0266C41.436 31.2118 41.1777 30.5607 40.6569 30.0653C40.1403 29.5698 39.382 29.2505 38.3862 29.1072L36.0614 28.8001C33.8949 28.5012 32.3116 27.9402 31.3159 27.1172C30.3201 26.2942 29.8243 25.1354 29.8243 23.645C29.8243 22.0686 30.4868 20.746 31.8117 19.6773C33.1366 18.6087 34.7906 18.0723 36.7697 18.0723C37.3446 18.0723 37.9529 18.146 38.5904 18.2975C38.8445 18.3589 39.5903 18.5841 40.4111 19.0263C42.2193 19.9967 43.2859 21.913 43.2484 23.9357C43.2484 23.9357 42.4568 23.8948 42.0776 23.8948C41.5235 23.8948 41.0944 23.514 40.7902 22.7524C40.6444 22.3183 40.4986 21.9949 40.3486 21.7779C40.0028 21.2619 39.507 20.8689 38.857 20.5904C38.2071 20.312 37.4696 20.1728 36.6405 20.1728C35.3739 20.1728 34.3448 20.4799 33.5532 21.0982C32.7616 21.7164 32.3658 22.5231 32.3658 23.5221C32.3658 24.3042 32.6616 24.9225 33.2532 25.377C33.8449 25.8315 34.749 26.1386 35.9614 26.3024L38.4737 26.6095C40.2944 26.8469 41.6693 27.3956 42.5901 28.2555C43.5108 29.1153 43.9733 30.2741 43.9733 31.7359C43.9733 33.4638 43.3192 34.8518 42.011 35.896C40.7027 36.9401 38.9528 37.4642 36.7655 37.4642C36.0114 37.4642 35.2656 37.3577 34.5198 37.2021C32.8616 36.8459 31.6992 35.9287 31.6992 35.9287Z" fill="#CBB434"/>
<path d="M50.0101 31.2235C50.0101 32.5214 50.2892 33.4673 50.8433 34.0651C51.3975 34.6629 52.2766 34.9618 53.4807 34.9618C54.6722 34.9618 55.6805 34.5769 56.5138 33.803C57.2387 33.1315 57.6304 32.1816 57.6304 31.203V24.8277H57.4679C57.0596 24.8277 56.7638 24.7417 56.5804 24.5739C56.3971 24.406 56.3055 24.1439 56.3055 23.7836C56.3055 23.3946 56.3096 22.6494 56.3096 22.6494H58.6428C59.3969 22.6494 60.0052 23.2472 60.0052 23.9883L60.001 34.7407H60.0843C60.5968 34.7407 60.876 34.7816 61.0801 34.9782C61.2968 35.187 61.3468 35.4286 61.3468 35.8094C61.3468 36.182 61.3218 36.919 61.3218 36.919L58.9803 36.9067C58.2386 36.9026 57.6345 36.4809 57.6304 35.7521V35.3672C56.6263 36.1288 56.2263 36.5505 55.5055 36.833C54.7889 37.1156 54.0306 37.2589 53.2348 37.2589C51.5058 37.2589 49.7476 36.7798 48.8851 35.879C48.0227 34.9782 47.5894 33.6147 47.5894 31.7885V24.8277H47.5061C47.1061 24.8277 46.7728 24.84 46.5603 24.6967C46.202 24.4592 46.2437 23.9802 46.2437 23.7222V22.6494H48.6352C49.3851 22.6494 49.9976 23.2472 49.9976 23.9842L50.0101 31.2235Z" fill="#CBB434"/>
<path d="M77.3285 27.7448L77.3035 35.5859C77.2993 36.3188 76.6952 36.9125 75.9452 36.9125H74.9453C74.2745 36.9125 73.6329 36.9125 73.6329 36.9125C73.6329 36.9125 73.6496 36.2328 73.6496 35.7988C73.6496 35.3975 73.7621 35.1191 73.9829 34.9635C74.2037 34.8079 74.3412 34.7301 74.9536 34.7301H74.9578V28.318C74.9578 27.1142 74.6787 26.197 74.1204 25.5624C73.5621 24.9318 72.758 24.6124 71.6955 24.6124C70.6248 24.6124 69.679 24.9645 68.8624 25.677C68.0416 26.3854 67.6375 27.2698 67.6375 28.318V35.7947C67.6375 36.413 67.1292 36.9166 66.4959 36.9166H65.246C64.5752 36.9166 63.9336 36.9166 63.9336 36.9166C63.9336 36.9166 63.9503 36.2369 63.9503 35.8029C63.9503 35.4016 64.0586 35.1232 64.2836 34.9676C64.5044 34.812 64.6419 34.7342 65.2502 34.7342L65.2585 24.8376C64.2127 24.8376 63.9336 24.1374 63.9336 23.728C63.9336 23.6993 63.9336 22.647 63.9336 22.647H66.2751C67.025 22.647 67.6375 23.2448 67.6375 23.9819V24.3299C68.3999 23.6297 69.1582 23.1138 69.9082 22.778C70.6539 22.4423 71.4331 22.2744 72.2413 22.2744C73.8246 22.2744 75.0661 22.7576 75.9744 23.7239C76.8743 24.6984 77.3285 26.0373 77.3285 27.7448Z" fill="#CBB434"/>
<path d="M105.394 22.249C103.052 22.249 98.4567 23.9565 98.0943 29.2467C98.0901 29.2794 98.0901 29.3122 98.0859 29.3449V29.3654C98.1276 35.1265 102.965 36.9281 105.394 36.9281C108.189 36.9281 110.052 35.8389 111.239 34.4877L111.243 34.4836L111.231 34.4795C110.96 34.3239 109.36 33.3658 108.339 34.0414C107.498 34.6024 106.769 34.6474 105.669 34.6433C104.64 34.6392 103.665 34.5819 102.723 33.9636C101.698 33.288 101.007 32.1702 100.911 30.8845H112.977C113.01 30.7002 113.031 30.5364 113.043 30.3972C113.043 30.3809 113.043 30.3645 113.047 30.3481C113.047 30.2785 113.047 30.1393 113.052 29.9673C113.056 29.6807 113.056 29.3081 113.056 29.001C113.052 27.1298 111.306 22.249 105.394 22.249ZM102.315 25.41C103.686 24.4314 104.677 24.5584 105.706 24.5174C107.939 24.4314 110.16 25.7376 110.214 28.2803H100.894C100.994 26.9905 101.315 26.1266 102.315 25.41Z" fill="#CBB434"/>
<path d="M113.051 30.1752C113.051 30.2285 113.047 30.2858 113.043 30.3554C113.043 30.2858 113.043 30.1466 113.047 29.9746C113.047 30.0442 113.051 30.1097 113.051 30.1752Z" fill="#CBB434"/>
<path d="M128.638 16.707H126.309C126.309 16.707 126.33 17.4482 126.33 17.8208C126.33 18.2425 126.505 18.9304 127.705 18.9304H127.63L127.567 24.843C126.95 24.1141 126.271 23.5573 125.413 23.1847C124.555 22.808 123.584 22.6196 122.505 22.6196C120.38 22.6196 118.605 23.328 117.18 24.7406C115.755 26.1573 115.043 27.9303 115.043 30.0594C115.043 32.119 115.71 33.8387 117.047 35.2227C118.384 36.6067 120.422 37.2987 122.401 37.2987C123.501 37.2987 124.521 37.0857 125.463 36.6558C125.817 36.4961 126.067 36.3364 126.305 36.1317C126.325 36.1112 126.371 36.0744 126.371 36.0744C126.267 35.7919 125.638 34.3055 123.98 34.6658C124.013 34.6577 124.084 34.6454 124.084 34.6454C124.084 34.6454 124.105 34.6413 124.138 34.629C124.08 34.6454 124.017 34.6618 123.959 34.6699C123.422 34.7641 122.922 34.8296 122.697 34.8296C121.263 34.8296 120.08 34.3751 119.147 33.4702C118.214 32.5653 117.747 31.4025 117.747 29.9816C117.747 28.4667 118.201 27.2424 119.114 26.3088C120.026 25.3712 121.218 24.9044 122.697 24.9044C124.151 24.9044 125.484 25.5104 126.409 26.4357C127.334 27.357 127.625 28.266 127.625 29.6868V29.6909C127.625 29.695 127.625 29.6991 127.625 29.7032C127.625 29.7073 127.625 29.7073 127.625 29.7114L127.609 30.2887C127.609 30.3174 127.609 30.342 127.605 30.3706L127.417 36.922H128.638C129.392 36.922 130 36.3201 130 35.583V18.0501C130.004 17.3089 129.392 16.707 128.638 16.707Z" fill="#CBB434"/>
<path d="M96.3766 19.7198L96.3474 35.5821C96.3474 36.3192 95.7391 36.917 94.9892 36.917H93.356H92.2685C92.2685 36.917 92.2394 36.2168 92.2394 35.8074C92.2394 35.4061 92.4977 34.7428 93.6851 34.7428H93.9059L94.0184 22.6351C94.0226 22.3935 93.6768 22.3239 93.5893 22.5532L89.0938 33.6208C89.0063 33.8379 88.6938 33.8379 88.6063 33.6208L84.09 22.5573C83.9983 22.3321 83.6567 22.3976 83.6608 22.6433L83.8275 35.7828C83.8358 36.3724 83.3733 36.8638 82.7859 36.917C82.7526 36.9211 82.7192 36.9211 82.6817 36.9211H81.4901C80.8194 36.9211 80.1777 36.9211 80.1777 36.9211C80.1777 36.9211 80.1944 36.2414 80.1944 35.8074C80.1944 35.4061 80.3027 35.1276 80.5277 34.9721C80.7485 34.8165 80.886 34.7387 81.4985 34.7387L81.5026 34.7469L81.5235 20.6902C81.236 20.6902 81.0402 20.6697 80.8902 20.6328C80.7402 20.596 80.636 20.5387 80.5235 20.465C80.3027 20.3176 80.1944 20.0432 80.1944 19.6542V18.5938C80.1944 18.5938 80.6985 18.606 81.036 18.606H83.7691C84.3274 18.606 84.8316 18.9418 85.0357 19.4536L88.7271 28.6992C88.8146 28.9203 89.1313 28.9162 89.2188 28.6992L92.3144 20.7762C91.7102 20.7762 91.5728 20.6984 91.3561 20.5428C91.1353 20.3872 91.0228 20.1087 91.0228 19.7075C91.0228 19.2775 91.0061 18.5938 91.0061 18.5938C91.0061 18.5938 91.6477 18.5938 92.3185 18.5938H93.4518C93.4601 18.5938 93.4685 18.5938 93.4726 18.5938H95.235C95.8683 18.5937 96.3807 19.0974 96.3766 19.7198Z" fill="#CBB434"/>
</svg>
